<?xml version="1.0" standalone="no"?>
<!DOCTYPE svg PUBLIC "-//W3C//DTD SVG 20010904//EN"
 "http://www.w3.org/TR/2001/REC-SVG-20010904/DTD/svg10.dtd">
<svg version="1.0" xmlns="http://www.w3.org/2000/svg"
 width="512.000000pt" height="512.000000pt" viewBox="0 0 512.000000 512.000000"
 preserveAspectRatio="xMidYMid meet">
<metadata>
Created by potrace 1.16, written by Peter Selinger 2001-2019
</metadata>
<g transform="translate(0.000000,512.000000) scale(0.100000,-0.100000)"
fill="#000000" stroke="none">
<path d="M2452 4460 c-245 -65 -449 -270 -512 -516 -27 -105 -27 -227 0 -272
30 -48 75 -72 140 -72 105 0 151 51 169 187 6 47 21 108 34 137 36 77 107 150
185 188 62 31 73 33 172 33 93 0 111 -3 163 -27 32 -15 81 -51 113 -82 31 -32
67 -81 82 -113 24 -52 27 -70 27 -163 0 -93 -3 -111 -27 -163 -34 -72 -121
-160 -191 -192 -29 -14 -84 -29 -122 -35 -42 -6 -353 -10 -765 -10 -676 0
-696 -1 -728 -20 -48 -30 -72 -75 -72 -140 0 -65 24 -110 72 -140 32 -19 52
-20 794 -20 724 0 765 1 838 20 248 63 453 268 516 516 14 53 20 111 20 184 0
73 -6 131 -20 184 -63 248 -268 453 -516 516 -103 27 -270 26 -372 0z"/>
<path d="M4052 3820 c-245 -65 -449 -270 -512 -516 -27 -105 -27 -227 0 -272
30 -48 75 -72 140 -72 105 0 151 51 169 187 6 47 21 108 34 137 36 77 107 150
185 188 62 31 73 33 172 33 93 0 111 -3 163 -27 32 -15 81 -51 113 -82 31 -32
67 -81 82 -113 24 -52 27 -70 27 -163 0 -93 -3 -111 -27 -163 -34 -72 -121
-160 -191 -192 -29 -14 -84 -29 -122 -35 -45 -6 -773 -10 -2045 -10 -1953 0
-1975 0 -2008 -20 -48 -30 -72 -75 -72 -140 0 -65 24 -110 72 -140 33 -20 55
-20 2074 -20 1997 0 2042 0 2118 20 248 63 453 268 516 516 14 53 20 111 20
184 0 73 -6 131 -20 184 -63 248 -268 453 -516 516 -103 27 -270 26 -372 0z"/>
<path d="M712 2060 c-48 -30 -72 -75 -72 -140 0 -65 24 -110 72 -140 32 -20
54 -20 1368 -20 842 0 1361 -4 1405 -10 38 -6 93 -21 122 -35 70 -32 157 -120
191 -192 24 -52 27 -70 27 -163 0 -93 -3 -111 -27 -163 -35 -74 -121 -160
-195 -195 -52 -24 -70 -27 -163 -27 -93 0 -111 3 -163 27 -73 34 -160 121
-193 192 -14 30 -29 91 -35 139 -13 96 -33 138 -81 167 -45 27 -131 27 -176 0
-54 -33 -72 -73 -72 -166 0 -307 229 -596 536 -674 105 -27 263 -27 368 0 248
63 453 268 516 516 27 105 27 263 0 368 -63 248 -268 453 -516 516 -75 19
-117 20 -1478 20 -1380 0 -1401 0 -1434 -20z"/>
</g>
</svg>
